<?xml version="1.0" encoding="utf-8"?>

<!DOCTYPE svg PUBLIC "-//W3C//DTD SVG 1.1//EN" "http://www.w3.org/Graphics/SVG/1.1/DTD/svg11.dtd">
<!-- Uploaded to: SVG Repo, www.svgrepo.com, Generator: SVG Repo Mixer Tools -->
<svg height="800px" width="800px" version="1.1" id="_x32_" xmlns="http://www.w3.org/2000/svg" xmlns:xlink="http://www.w3.org/1999/xlink" 
	 viewBox="0 0 512 512"  xml:space="preserve">
<style type="text/css">
	.st0{fill:#000000;}
</style>
<g>
	<path class="st0" d="M317.796,61.373c0-24.336-19.802-44.138-44.138-44.138h-35.311c-24.337,0-44.138,19.802-44.138,44.138v79.449
		h123.587V61.373z M282.485,79.029c0,4.88-3.948,8.828-8.828,8.828h-35.311c-4.88,0-8.828-3.948-8.828-8.828V61.373
		c0-4.879,3.948-8.828,8.828-8.828h35.311c4.879,0,8.828,3.949,8.828,8.828V79.029z"/>
	<path class="st0" d="M491.965,124.003H335.451v16.776c0,9.801-7.94,17.655-17.655,17.655H194.209
		c-9.707,0-17.656-7.854-17.656-17.655v-16.776H20.039C8.918,124.003,0,133.012,0,144.047v330.77
		c0,11.035,8.918,19.949,20.039,19.949h471.926c11.034,0,20.035-8.914,20.035-19.949v-330.77
		C512,133.012,502.999,124.003,491.965,124.003z M117.88,271.979c-1.238-8.431-2.94-25.095,1.465-33.458
		c0,0-3.008-5.465-3.008-12.681c12.668,1.802,53.117-24.155,65.19-3.017c17.496-1.818,27.962,22.871,20.018,49.156
		c0,0,9.81-0.457,5.888,13.284c-3.672,12.897-6.625,15.854-11.788,17.69c-2.216,12.534-5.936,23.604-10.837,29.052
		c0,6.534,0,11.301,0,15.121c0,0.379,0.073,0.793,0.181,1.207l-17.164,8.25v12.129h-16.155v-12.129l-17.173-8.268
		c0.108-0.413,0.181-0.81,0.181-1.189c0-3.82,0-8.586,0-15.121c-4.901-5.448-8.604-16.518-10.827-29.052
		c-5.173-1.837-8.117-4.793-11.798-17.69C108.281,272.073,117.152,271.979,117.88,271.979z M159.751,431.971
		c-57.957,0-97.794-7.509-98.414-14.759c-2.504-30.19,36.595-46.311,52.522-51.906c1.561-0.56,3.371-1.422,5.25-2.474l30.397,42.044
		l2.164-27.544h16.155l2.164,27.544l30.388-42.044c1.828,0.999,3.612,1.853,5.259,2.474c15.81,5.906,55.026,21.69,52.513,51.906
		C257.536,424.463,217.7,431.971,159.751,431.971z M372.317,411.851h-52.962v-17.655h52.962V411.851z M425.283,335.341H319.356
		v-17.655h105.928V335.341z M425.283,258.832H319.356v-17.656h105.928V258.832z"/>
</g>
</svg>